<svg xmlns="http://www.w3.org/2000/svg" width="137" height="40" viewBox="0 0 137 40">
    <g fill="none" fill-rule="evenodd">
        <g fill="#5045D2">
            <path d="M41.05 13.147V3.013c0-2.492 3.788-2.688 3.788 0v10.134c0 10.47-17.438 10.47-17.438 0V3.013c0-2.52 3.788-2.632 3.788 0v10.134c0 5.515 9.862 5.851 9.862 0zm33.035 5.46V3.124c0-1.008.231-1.988 1.735-1.988 1.041 0 1.273.252 2.053.98l9.572 11.59V2.845c0-.924.84-1.932 1.822-1.932 1.041 0 2.054 1.008 2.054 1.932v15.761c0 1.232-.781 1.708-1.533 1.932-1.012 0-1.504-.224-2.343-.98L77.873 7.8v10.806c0 1.232-.78 1.932-1.821 1.932s-1.967-.7-1.967-1.932zm28.62.195V4.664h-5.06c-2.516 0-2.516-3.583 0-3.583h13.678c2.574 0 2.574 3.583 0 3.583h-4.8v14.138c0 2.436-3.818 2.492-3.818 0zM9.242 17.125l-.023-6.281c-.024-.89.706-1.625 1.631-1.645.926-.02 1.696.685 1.72 1.574l.024 6.372c3.147-.708 5.49-3.414 5.49-6.645 0-3.77-3.19-6.825-7.124-6.825-3.934 0-7.124 3.056-7.124 6.825 0 3.202 2.302 5.889 5.406 6.625zM10.96 21C4.907 21 0 16.299 0 10.5S4.907 0 10.96 0c6.053 0 10.96 4.701 10.96 10.5S17.013 21 10.96 21zM120.56 19.954c-.452.976-1.5 1.177-2.52.976-.907-.517-1.473-1.55-.907-2.755l8.13-16.1c.765-1.52 2.804-1.578 3.512 0l7.988 16.1c1.161 2.238-2.266 4.017-3.286 1.779l-1.246-2.525h-10.452l-1.218 2.525zm2.975-6.314h6.685l-3.201-7.088-3.484 7.088zM52.06 19.954c-.452.976-1.5 1.177-2.52.976-.907-.517-1.473-1.55-.907-2.755l8.13-16.1c.765-1.52 2.804-1.578 3.512 0l7.988 16.1c1.161 2.238-2.266 4.017-3.286 1.779l-1.246-2.525H53.279l-1.218 2.525zm2.975-6.314h6.685l-3.201-7.088-3.484 7.088z"/>
        </g>
        <text fill="#110E36" font-family="HelveticaNeue-Medium, Helvetica Neue" font-size="11" font-weight="400" letter-spacing="2.044" opacity=".702">
            <tspan x="0" y="39">EXPLORE</tspan> <tspan x="65.052" y="39" letter-spacing="1.874">R</tspan>
        </text>
    </g>
</svg>
