<svg xmlns="http://www.w3.org/2000/svg" width="30" height="30" viewBox="0 0 30 30">
    <path fill="#C1C1CC" fill-rule="nonzero" d="M15 30C6.716 30 0 23.284 0 15 0 6.716 6.716 0 15 0c8.284 0 15 6.716 15 15 0 8.284-6.716 15-15 15zm6.78-21.941L4.405 14.404a.583.583 0 0 0 .05 1.123l4.416 1.222 1.648 4.9c.172.512.864.667 1.265.284l2.283-2.185 4.48 3.081c.548.378 1.328.097 1.467-.526L22.98 9.01c.146-.652-.538-1.194-1.2-.952zm-1.853 3.29l-8.023 6.72a.402.402 0 0 0-.143.26l-.309 2.601c-.01.085-.135.096-.162.015l-1.27-3.88a.398.398 0 0 1 .184-.467l9.474-5.566c.218-.128.441.156.249.317z"/>
</svg>
