<?xml version="1.0" encoding="UTF-8"?>
<svg width="30px" height="30px" viewBox="0 0 30 30" version="1.1" xmlns="http://www.w3.org/2000/svg" xmlns:xlink="http://www.w3.org/1999/xlink">
    <!-- Generator: Sketch 52.2 (67145) - http://www.bohemiancoding.com/sketch -->
    <title>medium@2x</title>
    <desc>Created with Sketch.</desc>
    <g id="EXPLORER" stroke="none" stroke-width="1" fill="none" fill-rule="evenodd">
        <g id="D_Account_Operations" transform="translate(-727.000000, -954.000000)" fill="#C1C1CC" fill-rule="nonzero">
            <g id="Group-10" transform="translate(0.000000, 878.000000)">
                <g id="Group-4" transform="translate(530.000000, 76.000000)">
                    <path d="M203.281103,9.00035022 C203.135276,8.99286522 203,9.10616318 203,9.2631092 L203,20.0192726 C203,20.1235499 203.060808,20.2186118 203.15646,20.2638286 L208.091562,22.5959369 C208.274862,22.6825616 208.487337,22.5512934 208.487337,22.3513809 L208.487337,17.7829603 L213.962021,20.1461538 L214.120529,19.9129787 L214.277295,19.9806631 L214.278068,20.2010133 L219.331424,22.5958417 C219.514788,22.6827702 219.727296,22.5510417 219.727337,22.350428 L219.727337,11.6148216 C219.727337,11.4828876 219.650623,11.3625852 219.530006,11.3054138 L214.739188,9.0343403 C214.603097,8.96983184 214.454348,9.00083282 214.354944,9.08875939 L214.226882,9.03347219 C214.052038,8.95800585 213.841892,9.0139774 213.741175,9.16284306 L210.468399,14.0003985 L208.600266,11.2617145 L203.426443,9.02758853 C203.377194,9.00632276 203.327849,8.99813659 203.281103,9.00035022 Z M211.964966,0 C220.230377,0 226.930034,6.70058219 226.930034,14.9650685 C226.930034,23.2295548 220.230377,29.9300342 211.964966,29.9300342 C203.699555,29.9300342 197,23.2294521 197,14.9650685 C197,6.70068493 203.699658,0 211.964966,0 Z" id="medium"></path>
                </g>
            </g>
        </g>
    </g>
</svg>