<svg xmlns="http://www.w3.org/2000/svg" width="20" height="18" viewBox="0 0 20 18">
    <g fill="#FF3282" fill-rule="evenodd">
        <path d="M18.981 13.685c.212.371.327.795.331 1.224.015 1.381-1.081 2.517-2.443 2.532H2.507a2.452 2.452 0 0 1-1.208-.336 2.484 2.484 0 0 1-1.151-1.52A2.517 2.517 0 0 1 .4 13.674L7.573 1.54l.002-.004c.206-.343.493-.634.831-.842a2.427 2.427 0 0 1 1.87-.291c.64.159 1.183.561 1.525 1.133l.002.004 7.172 12.134.006.01zm-2.126 2.18a.924.924 0 0 0 .902-.938.94.94 0 0 0-.12-.45L10.47 2.352a.91.91 0 0 0-1.564 0L1.739 14.477a.933.933 0 0 0 .338 1.264c.135.079.288.122.444.124h14.334z"/>
        <path d="M9.688 5.677c-.591 0-1.07.377-1.07.841v3.665c0 .465.479.841 1.07.841.59 0 1.069-.376 1.069-.841V6.518c0-.464-.479-.84-1.07-.84zM10.444 12.407a1.075 1.075 0 0 0-.757-.313c-.28 0-.557.114-.756.313-.198.2-.313.475-.313.756 0 .282.115.557.313.756.2.2.475.314.757.314.281 0 .557-.114.756-.314.199-.199.313-.474.313-.756 0-.281-.114-.557-.313-.756z"/>
    </g>
</svg>
