<svg xmlns="http://www.w3.org/2000/svg" width="30" height="30" viewBox="0 0 30 30">
    <path fill="#C1C1CC" fill-rule="nonzero" d="M14.965 0C23.23 0 29.93 6.7 29.93 14.965S23.23 29.93 14.965 29.93 0 23.23 0 14.965C0 6.701 6.7 0 14.965 0zm9.356 10.082a7.452 7.452 0 0 1-2.095.558 3.568 3.568 0 0 0 1.604-1.96 7.394 7.394 0 0 1-2.317.86 3.694 3.694 0 0 0-2.662-1.117c-2.012 0-3.646 1.584-3.646 3.539 0 .277.032.548.095.807A10.46 10.46 0 0 1 7.784 9.07a3.438 3.438 0 0 0-.494 1.779 3.51 3.51 0 0 0 1.622 2.945 3.708 3.708 0 0 1-1.653-.443v.045c0 1.715 1.257 3.145 2.926 3.47a3.771 3.771 0 0 1-1.647.061c.464 1.407 1.811 2.43 3.408 2.458a7.456 7.456 0 0 1-4.53 1.516c-.294 0-.584-.017-.87-.05a10.554 10.554 0 0 0 5.59 1.591c6.709 0 10.377-5.395 10.377-10.071l-.01-.459a7.278 7.278 0 0 0 1.818-1.831z"/>
</svg>
